<svg xmlns="http://www.w3.org/2000/svg" fill="none" stroke-linecap="square" stroke-miterlimit="10" viewBox="0 0 348 348"><clipPath id="a"><path d="M0 0h348v348H0V0z"/></clipPath><g clip-path="url(#a)"><path d="M0 0h348v348H0z"/><path fill="#fff" d="M-6 0h348v347.97H-6z"/><path d="M5.08 5.78h336.91v337.67H5.08z"/><path stroke="#000" stroke-linecap="butt" stroke-linejoin="round" stroke-width="2" d="M5.08 5.78h336.91v337.67H5.08z"/><path fill="#fff" d="M282.73 40.55c0-8.37 6.97-15.16 15.56-15.16 4.13 0 8.09 1.6 11 4.44a14.97 14.97 0 0 1 4.56 10.72c0 8.38-6.96 15.17-15.56 15.17-8.59 0-15.56-6.8-15.56-15.17z"/><path stroke="#000" stroke-linecap="butt" stroke-linejoin="round" stroke-width="2" d="M282.73 40.55c0-8.37 6.97-15.16 15.56-15.16 4.13 0 8.09 1.6 11 4.44a14.97 14.97 0 0 1 4.56 10.72c0 8.38-6.96 15.17-15.56 15.17-8.59 0-15.56-6.8-15.56-15.17z"/><path d="M38.37 95.74h107.21v100.19H38.37z"/><path stroke="#000" stroke-linecap="butt" stroke-linejoin="round" d="M38.37 95.74h107.21v100.19H38.37z"/><path d="M152.48 95.74h107.21v100.19H152.48z"/><path stroke="#000" stroke-linecap="butt" stroke-linejoin="round" d="M152.48 95.74h107.21v100.19H152.48z"/><path d="M38.37 206.52h107.21v100.19H38.37z"/><path stroke="#000" stroke-linecap="butt" stroke-linejoin="round" d="M38.37 206.52h107.21v100.19H38.37z"/><path d="M152.48 206.52h107.21v100.19H152.48z"/><path stroke="#000" stroke-linecap="butt" stroke-linejoin="round" d="M152.48 206.52h107.21v100.19H152.48z"/><path stroke="#000" stroke-linecap="butt" stroke-linejoin="round" stroke-width="2" d="M82.1 102.05h19.75v5.64H82.1z" style="fill:#000"/><path fill="#000" d="M196.21 102.05h19.75v5.64h-19.75z"/><path stroke="#000" stroke-linecap="butt" stroke-linejoin="round" stroke-width="2" d="M196.21 102.05h19.75v5.64h-19.75z" style="stroke:#0f0;fill:#0f0"/><path fill="#000" d="M82.1 213.53h19.75v5.63H82.1z"/><path stroke="#000" stroke-linecap="butt" stroke-linejoin="round" stroke-width="2" d="M82.1 213.53h19.75v5.63H82.1z"/><path fill="#000" d="M196.21 213.53h19.75v5.63h-19.75z"/><path stroke="#000" stroke-linecap="butt" stroke-linejoin="round" stroke-width="2" d="M196.21 213.53h19.75v5.63h-19.75z"/><path d="M195.6 129.2h6.52v6.52h-6.52zm9.38 0h6.52v6.52h-6.52z" style="fill:#000;stroke:none;stroke-width:.446429;stroke-linecap:square;stroke-miterlimit:3;stop-color:#000"/><path d="M179.43 138.32c-10 23.9 53.23 23.2 53.44-2.08" style="fill:none;stroke:#000;stroke-width:5;stroke-linecap:square;stroke-miterlimit:3;stroke-dasharray:none;stop-color:#000"/><circle cx="203.29" cy="162.44" r="5.6" style="fill:none;stroke:#000;stroke-width:5;stroke-linecap:square;stroke-miterlimit:3;stroke-dasharray:none;stop-color:#000"/><path d="M199.1 234.42c1.28-9.04 13.88-4.4 13.62 0m-13.37 56.05c1.29-9.04 13.9-4.4 13.63 0m18.69-27.9c1.3-9.03 13.9-4.4 13.63 0m-78.01.26c1.29-9.03 13.89-4.4 13.63 0m-4.25-19.81c1.3-9.04 13.9-4.4 13.63 0m31.99-.26c1.29-9.04 13.89-4.4 13.63 0m-59.51 39.62c1.3-9.03 13.9-4.4 13.63 0m32.25 0c1.29-9.03 13.89-4.4 13.63 0" style="fill:none;stroke:#000;stroke-width:3;stroke-linecap:square;stroke-miterlimit:3;stroke-dasharray:none;stop-color:#000"/><path d="M70.6 259.67h9.78l21.24-21.25-5.7 21.3h18.22v15.46h-43.4Z" style="fill:none;stroke:#000;stroke-width:4.5;stroke-linecap:square;stroke-miterlimit:3;stroke-dasharray:none;stop-color:#000"/><path d="M67.66 148.45h48.66m-37.29-22.92 25.8 46.45m1.17-44.91-27.28 42.76" style="fill:none;stroke:#000;stroke-width:7.5;stroke-linecap:round;stroke-miterlimit:3;stroke-dasharray:none;stop-color:#000"/></g></svg>